# xmcd CD database file
#
# Track frame offsets:
#	150
#	20617
#	48875
#	73265
#	94515
#	115802
#	142815
#	156497
#	187609
#	215370
#
# Disc length: 3262 seconds
#
# Revision: 0
# Processed by: cddbd v1.5.2PL0 Copyright (c) Steve Scherf et al.
# Submitted via: CDex 1.51
#
DISCID=800cbc0a
DTITLE=Lisa Chestnut - Inspired Artists - Daughter of the Moon
DYEAR=1995
DGENRE=New Age
TTITLE0=Crystals
TTITLE1=Grindstone
TTITLE2=Lunar Day
TTITLE3=Aurora Borealis
TTITLE4=Michaela's Lullaby
TTITLE5=Breaking of the Shells
TTITLE6=Cosmos
TTITLE7=Tide Keeper
TTITLE8=Harvest Moon
TTITLE9=Moonlight Sonata
EXTD=YEAR: 1995
EXTT0=
EXTT1=
EXTT2=
EXTT3=
EXTT4=
EXTT5=
EXTT6=
EXTT7=
EXTT8=
EXTT9=
PLAYORDER=
